<svg xmlns="http://www.w3.org/2000/svg" xmlns:xlink="http://www.w3.org/1999/xlink" width="1280" height="720" overflow="hidden"><defs><clipPath id="clip0"><rect width="1280" height="720" x="0" y="0"/></clipPath></defs><g clip-path="url(#clip0)"><rect width="1280" height="720" x="0" y="0" fill="#FFF"/><rect width="89" height="39" x="540.5" y="560.5" fill="none" stroke="#5B9BD5" stroke-linejoin="round" stroke-miterlimit="10"/><text font-family="Calibri,Calibri_MSFontService,sans-serif" font-size="24" font-weight="400" transform="translate(550.427 587)">Project</text><path fill="#4472C4" d="M312.6 474.182 578.603 557.88 578.403 558.516 312.4 474.818ZM578.431 553.982 584.862 560.199 576.03 561.613Z"/><rect width="319" height="296" x="153.5" y="178.5" fill="#F2F2F2" stroke="#2F528F" stroke-miterlimit="8" stroke-width="1.333"/><rect width="139" height="39" x="243.5" y="183.5" fill="none" stroke="#A6A6A6" stroke-linejoin="round" stroke-miterlimit="10"/><text font-family="Calibri,Calibri_MSFontService,sans-serif" font-size="24" font-weight="400" transform="translate(270.382 210)">Source 1</text><rect width="140" height="37" x="302.5" y="295.5" fill="#4472C4" stroke="#2F528F" stroke-miterlimit="8" stroke-width="1.333"/><text fill="#FFF" font-family="Calibri,Calibri_MSFontService,sans-serif" font-size="24" font-weight="400" transform="translate(346.912 322)">Filter</text><rect width="140" height="37" x="302.5" y="350.5" fill="#4472C4" stroke="#2F528F" stroke-miterlimit="8" stroke-width="1.333"/><text fill="#FFF" font-family="Calibri,Calibri_MSFontService,sans-serif" font-size="24" font-weight="400" transform="translate(322.801 376)">Transform</text><rect width="140" height="37" x="302.5" y="403.5" fill="#4472C4" stroke="#2F528F" stroke-miterlimit="8" stroke-width="1.333"/><text fill="#FFF" font-family="Calibri,Calibri_MSFontService,sans-serif" font-size="24" font-weight="400" transform="translate(322.801 429)">Transform</text><path fill="#4472C4" d="M372.833 276.5 372.834 288.937 372.167 288.937 372.167 276.5ZM376.5 287.604 372.5 295.604 368.5 287.604Z"/><path fill="#4472C4" d="M0.333333-1.00418e-05 0.333657 10.7583-0.333009 10.7583-0.333333 1.00418e-05ZM4.00028 9.42487 0.000524934 17.425-3.99972 9.42511Z" transform="matrix(-1 0 0 1 372.501 332.5)"/><path fill="#4472C4" d="M372.833 387.5 372.833 397.253 372.167 397.253 372.167 387.5ZM376.5 395.92 372.5 403.92 368.5 395.92Z"/><text font-family="Calibri,Calibri_MSFontService,sans-serif" font-size="24" font-weight="400" transform="translate(217.185 264)">s1.root<tspan x="-22.511" y="55" font-size="24">s1.</tspan>stage1<tspan x="-22.511" y="110" font-size="24">s1.stage2</tspan><tspan x="-22.511" y="165" font-size="24">s1</tspan>.stage3</text><rect width="140" height="38" x="302.5" y="238.5" fill="#4472C4" stroke="#2F528F" stroke-miterlimit="8" stroke-width="1.333"/><text fill="#FFF" font-family="Calibri,Calibri_MSFontService,sans-serif" font-size="24" font-weight="400" transform="translate(314.381 265)">Sourc<tspan x="54.48" y="0" font-size="24">e</tspan><tspan x="71.98" y="0" font-size="24">dat</tspan><tspan x="103.633" y="0" font-size="24">a</tspan></text><rect width="319" height="296" x="660.5" y="178.5" fill="#F2F2F2" stroke="#2F528F" stroke-miterlimit="8" stroke-width="1.333"/><rect width="139" height="39" x="750.5" y="183.5" fill="none" stroke="#A6A6A6" stroke-linejoin="round" stroke-miterlimit="10"/><text font-family="Calibri,Calibri_MSFontService,sans-serif" font-size="24" font-weight="400" transform="translate(777.645 210)">Source <tspan x="71.98" y="0" font-size="24">2</tspan></text><rect width="140" height="37" x="809.5" y="295.5" fill="#4472C4" stroke="#2F528F" stroke-miterlimit="8" stroke-width="1.333"/><text fill="#FFF" font-family="Calibri,Calibri_MSFontService,sans-serif" font-size="24" font-weight="400" transform="translate(847.545 322)">Model</text><rect width="140" height="37" x="809.5" y="350.5" fill="#4472C4" stroke="#2F528F" stroke-miterlimit="8" stroke-width="1.333"/><text fill="#FFF" font-family="Calibri,Calibri_MSFontService,sans-serif" font-size="24" font-weight="400" transform="translate(830.064 376)">Transform</text><path fill="#4472C4" d="M879.833 276.5 879.834 288.937 879.167 288.937 879.167 276.5ZM883.5 287.604 879.5 295.604 875.5 287.604Z"/><path fill="#4472C4" d="M0.333333-1.00418e-05 0.333657 10.7583-0.333009 10.7583-0.333333 1.00418e-05ZM4.00028 9.42487 0.000524934 17.425-3.99972 9.42511Z" transform="matrix(-1 0 0 1 879.501 332.5)"/><text font-family="Calibri,Calibri_MSFontService,sans-serif" font-size="24" font-weight="400" transform="translate(724.448 264)">s2.root<tspan x="-22.511" y="55" font-size="24">s2.</tspan>stage1<tspan x="-22.511" y="110" font-size="24">s2.</tspan>stage2</text><rect width="140" height="38" x="809.5" y="238.5" fill="#4472C4" stroke="#2F528F" stroke-miterlimit="8" stroke-width="1.333"/><text fill="#FFF" font-family="Calibri,Calibri_MSFontService,sans-serif" font-size="24" font-weight="400" transform="translate(821.644 265)">Sourc<tspan x="54.48" y="0" font-size="24">e</tspan><tspan x="71.98" y="0" font-size="24">dat</tspan><tspan x="103.633" y="0" font-size="24">a</tspan></text><path fill="#4472C4" d="M0.114244-0.313144 228.752 83.1006 228.523 83.7268-0.114244 0.313144ZM228.756 79.1992 234.901 85.6988 226.015 86.7147Z" transform="matrix(-1 0 0 1 820.401 474.5)"/></g></svg>